<?xml version="1.0" encoding="UTF-8" standalone="no"?>
<svg xmlns="http://www.w3.org/2000/svg"
     viewBox="0 0 166.63881 123.78606" version="1.1">
  <g transform="translate(-18.473948,-97.598943)">
    <g transform="matrix(0.26037316,0,0,0.26037316,18.473948,88.073946)" fill="#fff">
      <path d="m 144,292.58211 h 352 c 8.8,0 16,-7.2 16,-16 V 52.582112 c 0,-8.8 -7.2,-16 -16,-16 H 384 V 164.58211 l -64,-32 -64,32 V 36.582112 H 144 c -8.8,0 -16,7.2 -16,16 V 276.58211 c 0,8.8 7.2,16 16,16 z M 624,384 c 8.8,0 16,-7.2 16,-16 v -32 c 0,-8.8 -7.2,-16 -16,-16 H 16 c -8.8,0 -16,7.2 -16,16 v 32 c 0,8.8 7.2,16 16,16 h 48 v 64 H 16 c -8.8,0 -16,7.2 -16,16 v 32 c 0,8.8 7.2,16 16,16 h 608 c 8.8,0 16,-7.2 16,-16 v -32 c 0,-8.8 -7.2,-16 -16,-16 H 576 V 384 Z M 288,448 H 128 v -64 h 160 z m 224,0 H 352 v -64 h 160 z"/>
    </g>
  </g>
</svg>
